<svg width="1492" height="1192" viewBox="0 0 1492 1192" fill="none" xmlns="http://www.w3.org/2000/svg">
<line opacity="0.53" x1="1491.5" y1="1192" x2="1491.5" y2="185.083" stroke="#B6B9C1" stroke-dasharray="10 10"/>
<line opacity="0.53" x1="1420.5" y1="1192" x2="1420.5" y2="185.083" stroke="#B6B9C1" stroke-dasharray="10 10"/>
<line opacity="0.53" x1="1349.5" y1="1192" x2="1349.5" y2="185.083" stroke="#B6B9C1" stroke-dasharray="10 10"/>
<line opacity="0.53" x1="1278.5" y1="1192" x2="1278.5" y2="185.083" stroke="#B6B9C1" stroke-dasharray="10 10"/>
<line opacity="0.53" x1="1207.5" y1="1192" x2="1207.5" y2="185.083" stroke="#B6B9C1" stroke-dasharray="10 10"/>
<line opacity="0.53" x1="1136.5" y1="1192" x2="1136.5" y2="185.083" stroke="#B6B9C1" stroke-dasharray="10 10"/>
<line opacity="0.53" x1="1065.5" y1="1192" x2="1065.5" y2="185.083" stroke="#B6B9C1" stroke-dasharray="10 10"/>
<line opacity="0.53" x1="994.5" y1="1192" x2="994.5" y2="185.083" stroke="#B6B9C1" stroke-dasharray="10 10"/>
<line opacity="0.53" x1="923.5" y1="1192" x2="923.5" y2="185.083" stroke="#B6B9C1" stroke-dasharray="10 10"/>
<line opacity="0.53" x1="852.5" y1="1192" x2="852.5" y2="185.083" stroke="#B6B9C1" stroke-dasharray="10 10"/>
<line opacity="0.53" x1="781.5" y1="1192" x2="781.5" y2="185.083" stroke="#B6B9C1" stroke-dasharray="10 10"/>
<line opacity="0.53" x1="710.5" y1="1192" x2="710.5" y2="185.083" stroke="#B6B9C1" stroke-dasharray="10 10"/>
<line opacity="0.53" x1="639.5" y1="1192" x2="639.5" y2="185.083" stroke="#B6B9C1" stroke-dasharray="10 10"/>
<line opacity="0.53" x1="568.5" y1="1192" x2="568.5" y2="185.083" stroke="#B6B9C1" stroke-dasharray="10 10"/>
<line opacity="0.53" x1="497.5" y1="1192" x2="497.5" y2="185.083" stroke="#B6B9C1" stroke-dasharray="10 10"/>
<line opacity="0.53" x1="426.5" y1="1192" x2="426.5" y2="185.083" stroke="#B6B9C1" stroke-dasharray="10 10"/>
<line opacity="0.53" x1="355.5" y1="1192" x2="355.5" y2="185.083" stroke="#B6B9C1" stroke-dasharray="10 10"/>
<line opacity="0.53" x1="284.5" y1="1192" x2="284.5" y2="185.083" stroke="#B6B9C1" stroke-dasharray="10 10"/>
<line opacity="0.53" x1="213.5" y1="1192" x2="213.5" y2="185.083" stroke="#B6B9C1" stroke-dasharray="10 10"/>
<line opacity="0.53" x1="142.5" y1="1192" x2="142.5" y2="185.083" stroke="#B6B9C1" stroke-dasharray="10 10"/>
<line opacity="0.53" x1="71.5" y1="1192" x2="71.5" y2="185.083" stroke="#B6B9C1" stroke-dasharray="10 10"/>
<line opacity="0.53" x1="0.5" y1="1192" x2="0.5" y2="185.083" stroke="#B6B9C1" stroke-dasharray="10 10"/>
</svg>
