<svg width="138" height="92" viewBox="0 0 138 92" fill="none" xmlns="http://www.w3.org/2000/svg">
<g clip-path="url(#clip0_210_71)">
<path d="M137.148 50.003C137.076 50.1142 136.967 50.2254 136.931 50.3683C135.914 55.0223 133.698 58.1832 130.538 60.1529C130.502 60.1687 130.465 60.1846 130.429 60.2005C130.247 60.2799 130.048 60.3435 129.866 60.4229C127.342 61.5507 124.836 61.5189 122.384 60.137C121.349 59.5493 120.368 58.7233 119.388 57.945C116.01 55.2765 112.65 52.5762 109.272 49.8918C107.638 48.5893 105.985 47.3027 104.351 46.0002C102.607 44.5866 100.864 43.157 99.1204 41.7592C94.326 37.9312 89.5316 34.119 84.7554 30.2751C83.4115 29.195 82.0132 28.1625 80.8146 26.8124C78.3448 24.0486 77.019 20.3794 76.9101 15.9636C76.7648 10.3725 78.254 5.9885 81.3412 2.97055C85.0642 -0.682766 89.7859 -0.762186 93.7267 2.33519C99.4836 6.86212 105.204 11.5002 110.925 16.0748C116.064 20.1888 121.222 24.2868 126.361 28.4008C128.431 30.0527 130.538 31.6411 132.554 33.4201C134.751 35.358 136.186 38.1694 136.931 41.6639C136.967 41.8069 137.076 41.9022 137.148 42.0292L137.148 50.003Z" fill="#0E9C58"/>
<path d="M33.0521 46.0002C35.3222 47.8269 37.5923 49.6535 39.8623 51.4643C43.7487 54.5776 47.635 57.6749 51.5032 60.7723C52.8471 61.8365 54.191 62.869 55.4985 63.9968C59.3849 67.3642 61.2554 73.9878 60.2566 80.1984C59.1851 86.7585 54.99 91.6666 50.0685 91.9684C47.6713 92.1114 45.5102 91.1742 43.4581 89.5064C38.2642 85.2972 33.0158 81.1673 27.8037 76.9898C22.8096 73.003 17.8336 69.0002 12.8576 65.0133C10.2788 62.9484 7.66373 60.9629 5.12126 58.8345C2.72408 56.8172 1.14411 53.831 0.417692 50.0665C-0.417691 45.8096 2.23716e-07 41.7433 1.67077 37.947C2.90568 35.1356 4.70357 33.1977 6.84651 31.8317C6.9918 31.7682 7.15524 31.7364 7.30052 31.657C10.1699 30.291 12.9848 30.4339 15.7088 32.2606C17.1254 33.2136 18.4692 34.3731 19.8313 35.4532C22.7188 37.7564 25.6063 40.0914 28.512 42.3945C30.0193 43.6017 31.5448 44.793 33.0703 45.9843L33.0521 46.0002Z" fill="#4285F3"/>
<path d="M33.361 45.7622C33.1794 45.921 32.9433 45.921 32.7617 45.7622C31.3452 44.6503 29.9287 43.5384 28.5122 42.4107C25.6246 40.1075 22.7371 37.7725 19.8314 35.4694C18.4694 34.3892 17.1255 33.2297 15.709 32.2767C12.9849 30.45 10.1519 30.3071 7.30069 31.6731C7.15541 31.7366 6.99196 31.7843 6.84668 31.8478C7.86367 31.006 8.88066 30.1482 9.89765 29.3381C13.7114 26.2725 17.5251 23.2069 21.3388 20.1572C24.4442 17.6793 27.5497 15.2332 30.6369 12.7553C34.4507 9.70555 38.2644 6.63994 42.0781 3.59022C43.767 2.25596 45.4014 0.746984 47.3628 0.286349C51.8303 -0.730226 55.5713 1.09643 58.3136 6.09988C61.4916 11.8975 61.2556 19.5536 57.8777 25.1448C56.9152 26.7491 55.6803 27.8927 54.3727 28.9252C51.6123 31.1013 48.8883 33.3091 46.146 35.5011C42.859 38.122 39.5719 40.7428 36.303 43.3637C35.3224 44.1579 34.3417 44.968 33.361 45.7622Z" fill="#E94336"/>
<path d="M104.078 46.2539C104.26 46.0951 104.496 46.0951 104.677 46.2539C106.221 47.4611 107.765 48.6841 109.308 49.9072C112.686 52.5916 116.046 55.2919 119.424 57.9604C120.404 58.7387 121.367 59.5647 122.42 60.1524C124.872 61.5184 127.378 61.566 129.902 60.4383C130.102 60.343 130.302 60.2794 130.52 60.2C129.576 60.9942 128.631 61.8202 127.669 62.5985C124.236 65.3464 120.786 68.0785 117.354 70.8264C114.43 73.1455 111.524 75.4804 108.6 77.8154C104.677 80.9604 100.755 84.1054 96.814 87.2346C95.3066 88.4258 93.8356 89.7125 92.2557 90.7131C86.5896 94.3347 79.6523 90.2049 77.5638 82.0405C75.8023 75.2104 77.6909 67.5384 82.0858 63.9169C85.1731 61.3596 88.3148 58.9293 91.4203 56.4514C95.0161 53.5764 98.5937 50.7014 102.171 47.8264C102.807 47.3181 103.443 46.7939 104.078 46.2857L104.078 46.2539Z" fill="#FABB09"/>
</g>
<defs>
<clipPath id="clip0_210_71">
<rect width="137.148" height="92" fill="white"/>
</clipPath>
</defs>
</svg>
