<svg width="306" height="355" viewBox="0 0 306 355" fill="none" xmlns="http://www.w3.org/2000/svg">
<path fill-rule="evenodd" clip-rule="evenodd" d="M14.9671 171.281L14.6079 173.146L14.2139 175.021L13.7867 176.911L13.3281 178.816L12.8403 180.739L12.326 182.681L11.7877 184.644L11.2284 186.63L10.6509 188.639L10.0582 190.673L9.45335 192.733L8.8394 194.82L8.21962 196.935L7.59724 199.078L6.97569 201.25L6.35838 203.45L5.74888 205.679L5.15077 207.937L4.56767 210.223L4.00337 212.537L3.4615 214.878L2.94581 217.245L2.46 219.637L2.00776 222.053L1.59266 224.491L1.21821 226.949L0.887829 229.426L0.604779 231.92L0.372082 234.428L0.1927 236.949L0.0692257 239.48L0.00410112 242.019L-0.000568134 244.564L0.0570795 247.111L0.178661 249.659L0.365612 252.206L0.619274 254.748L0.940716 257.283L1.33079 259.81L1.79023 262.324L2.3195 264.825L2.91886 267.309L3.58842 269.775L4.32798 272.219L5.13725 274.64L6.01567 277.036L6.96247 279.405L7.97679 281.745L9.05751 284.054L10.2033 286.331L11.4129 288.575L12.6846 290.783L14.0167 292.955L15.4075 295.091L16.8551 297.189L18.3573 299.249L19.9123 301.27L21.5178 303.252L23.1717 305.195L24.8718 307.099L26.616 308.964L28.402 310.791L30.2279 312.579L32.0913 314.329L33.9903 316.043L35.9229 317.72L37.8872 319.361L39.8814 320.968L41.9038 322.54L43.9528 324.08L46.0269 325.586L48.1246 327.061L50.2449 328.505L52.3864 329.919L54.5483 331.303L56.7296 332.658L58.9295 333.985L61.1475 335.283L63.3828 336.553L65.6352 337.795L67.9042 339.008L70.1895 340.193L72.491 341.348L74.8087 342.474L77.1427 343.568L79.4933 344.628L81.8606 345.653L84.2451 346.64L86.647 347.585L89.0665 348.485L91.5038 349.338L93.9588 350.138L96.4313 350.882L98.9211 351.566L101.428 352.186L103.95 352.737L106.487 353.215L109.038 353.617L111.602 353.938L114.176 354.174L116.758 354.322L119.347 354.378L121.94 354.34L124.535 354.205L127.129 353.97L129.718 353.634L132.3 353.196L134.872 352.655L137.43 352.01L139.971 351.263L142.492 350.414L144.989 349.464L147.46 348.414L149.901 347.268L152.309 346.026L154.681 344.692L157.014 343.268L159.306 341.757L161.554 340.164L163.756 338.491L165.91 336.743L168.013 334.925L170.064 333.04L172.062 331.094L174.005 329.092L175.892 327.038L177.723 324.938L179.497 322.797L181.214 320.62L182.874 318.414L184.477 316.183L186.025 313.933L187.518 311.67L188.957 309.398L190.343 307.124L191.678 304.852L192.965 302.587L194.205 300.335L195.4 298.1L196.554 295.886L197.668 293.697L198.745 291.538L199.789 289.413L200.802 287.325L201.788 285.276L202.749 283.27L203.69 281.309L204.613 279.396L205.521 277.531L206.419 275.718L207.308 273.956L208.193 272.246L209.075 270.589L209.959 268.985L210.847 267.434L211.741 265.935L212.644 264.487L213.559 263.089L214.487 261.74L215.43 260.437L216.39 259.179L217.368 257.964L218.367 256.789L219.386 255.653L220.427 254.552L221.491 253.484L222.577 252.445L223.687 251.434L224.819 250.447L225.974 249.48L227.151 248.532L228.35 247.598L229.57 246.676L230.809 245.762L232.066 244.854L233.34 243.949L234.63 243.043L235.933 242.135L237.249 241.221L238.576 240.3L239.912 239.369L241.256 238.427L242.606 237.471L243.961 236.501L245.319 235.514L246.681 234.511L248.045 233.49L249.41 232.449L250.776 231.39L252.141 230.31L253.505 229.209L254.867 228.086L256.227 226.942L257.582 225.775L258.934 224.584L260.281 223.371L261.622 222.134L262.957 220.872L264.285 219.587L265.606 218.277L266.918 216.942L268.223 215.582L269.518 214.197L270.803 212.787L272.079 211.352L273.344 209.891L274.598 208.405L275.841 206.894L277.071 205.357L278.289 203.794L279.494 202.205L280.685 200.591L281.862 198.951L283.024 197.285L284.17 195.593L285.299 193.875L286.412 192.132L287.506 190.363L288.581 188.568L289.636 186.747L290.67 184.901L291.681 183.03L292.669 181.133L293.633 179.211L294.57 177.265L295.48 175.294L296.361 173.299L297.211 171.281L298.029 169.24L298.814 167.177L299.563 165.091L300.275 162.985L300.949 160.858L301.582 158.713L302.172 156.549L302.719 154.367L303.22 152.17L303.673 149.958L304.077 147.733L304.429 145.495L304.729 143.247L304.973 140.99L305.161 138.727L305.291 136.457L305.362 134.185L305.371 131.911L305.318 129.637L305.2 127.367L305.018 125.101L304.769 122.842L304.453 120.593L304.069 118.355L303.615 116.132L303.093 113.925L302.5 111.737L301.837 109.57L301.104 107.427L300.3 105.31L299.426 103.222L298.482 101.164L297.468 99.1402L296.384 97.152L295.232 95.2019L294.012 93.2921L292.726 91.4246L291.375 89.6013L289.96 87.8239L288.485 86.094L286.95 84.4129L285.36 82.7816L283.715 81.2011L282.02 79.672L280.277 78.1946L278.489 76.769L276.661 75.3951L274.795 74.0724L272.895 72.8001L270.965 71.5772L269.008 70.4025L267.029 69.2743L265.031 68.1908L263.017 67.15L260.993 66.1494L258.96 65.1866L256.923 64.2587L254.886 63.3627L252.85 62.4954L250.82 61.6536L248.798 60.8338L246.787 60.0325L244.79 59.2459L242.808 58.4705L240.843 57.7026L238.897 56.9384L236.972 56.1744L235.068 55.407L233.186 54.6327L231.327 53.8482L229.491 53.0505L227.677 52.2365L225.885 51.4036L224.114 50.5493L222.364 49.6716L220.634 48.7684L218.92 47.8384L217.223 46.8804L215.54 45.8936L213.868 44.8777L212.207 43.8326L210.552 42.7587L208.902 41.6569L207.254 40.5281L205.607 39.3733L203.956 38.1937L202.301 36.9906L200.639 35.7656L198.967 34.5205L197.285 33.2571L195.588 31.9776L193.876 30.6842L192.147 29.3796L190.398 28.0664L188.628 26.7476L186.836 25.4262L185.02 24.1054L183.179 22.7887L181.311 21.4795L179.416 20.1814L177.492 18.898L175.54 17.6328L173.559 16.3896L171.548 15.1717L169.508 13.9828L167.439 12.8259L165.34 11.7043L163.213 10.6207L161.059 9.57767L158.877 8.57746L156.67 7.62224L154.437 6.71415L152.18 5.85531L149.901 5.04781L147.6 4.29364L145.279 3.59478L142.939 2.95307L140.582 2.37029L138.209 1.84809L135.823 1.38802L133.425 0.991464L131.016 0.659689L128.6 0.393798L126.177 0.194732L123.749 0.063265L121.319 -4.89266e-06L118.888 0.0053418L116.459 0.0795424L114.034 0.222651L111.613 0.434538L109.2 0.714893L106.796 1.06322L104.402 1.47887L102.022 1.961L99.6549 2.50862L97.3042 3.12058L94.9706 3.79561L92.6558 4.53228L90.3608 5.32905L88.0871 6.18429L85.8356 7.09626L83.6073 8.06315L81.4031 9.08308L79.2238 10.1541L77.0701 11.2743L74.9426 12.4417L72.8417 13.6544L70.7678 14.9102L68.7212 16.2074L66.7023 17.5439L64.7111 18.918L62.7478 20.3279L60.8125 21.7718L58.9052 23.2482L57.0259 24.7555L55.1746 26.2922L53.3514 27.857L51.5563 29.4487L49.7892 31.0663L48.0504 32.7089L46.3402 34.3758L44.6591 36.0668L43.0077 37.7816L41.3869 39.5202L39.7977 41.2828L38.2411 43.0696L36.7186 44.8809L35.2315 46.7173L33.7815 48.579L32.3703 50.4665L30.9998 52.3803L29.6717 54.3207L28.3881 56.2879L27.151 58.2821L25.9622 60.3034L24.8237 62.3516L23.7374 64.4264L22.7051 66.5273L21.7282 68.6537L20.8082 70.8045L19.9464 72.9788L19.1434 75.175L18.3999 77.3915L17.7161 79.6265L17.0918 81.8779L16.5263 84.1434L16.0186 86.4206L15.5679 88.7071L15.1726 91.0007L14.8315 93.299L14.5427 95.5996L14.3046 97.9003L14.115 100.199L13.9717 102.493L13.8724 104.781L13.8145 107.061L13.7952 109.33L13.8117 111.587L13.861 113.831L13.94 116.059L14.0454 118.27L14.1738 120.464L14.322 122.639L14.4863 124.793L14.6632 126.928L14.8491 129.04L15.0405 131.132L15.2339 133.201L15.4256 135.249L15.6123 137.275L15.7904 139.28L15.9566 141.264L16.1079 143.228L16.241 145.173L16.3531 147.1L16.4415 149.011L16.5035 150.906L16.5369 152.788L16.5395 154.658L16.5096 156.518L16.4454 158.369L16.3458 160.215L16.2097 162.056L16.0363 163.896L15.8253 165.736L15.5765 167.579L15.2903 169.426L14.9671 171.281Z" fill="#E94336"/>
</svg>
