<svg width="306" height="355" viewBox="0 0 306 355" fill="none" xmlns="http://www.w3.org/2000/svg">
<path fill-rule="evenodd" clip-rule="evenodd" d="M290.404 171.281L290.763 173.146L291.157 175.021L291.584 176.911L292.043 178.816L292.531 180.739L293.045 182.681L293.583 184.644L294.143 186.63L294.72 188.639L295.313 190.673L295.918 192.733L296.532 194.82L297.151 196.935L297.774 199.078L298.395 201.25L299.013 203.45L299.622 205.679L300.22 207.937L300.803 210.223L301.368 212.537L301.91 214.878L302.425 217.245L302.911 219.637L303.363 222.053L303.778 224.491L304.153 226.949L304.483 229.426L304.766 231.92L304.999 234.428L305.178 236.949L305.302 239.48L305.367 242.019L305.372 244.564L305.314 247.111L305.192 249.659L305.005 252.206L304.752 254.748L304.43 257.283L304.04 259.81L303.581 262.324L303.052 264.825L302.452 267.309L301.783 269.775L301.043 272.219L300.234 274.64L299.355 277.036L298.409 279.405L297.394 281.745L296.314 284.054L295.168 286.331L293.958 288.575L292.687 290.783L291.354 292.955L289.964 295.091L288.516 297.189L287.014 299.249L285.459 301.27L283.853 303.252L282.199 305.195L280.499 307.099L278.755 308.964L276.969 310.791L275.143 312.579L273.28 314.329L271.381 316.043L269.448 317.72L267.484 319.361L265.49 320.968L263.467 322.54L261.418 324.08L259.344 325.586L257.246 327.061L255.126 328.505L252.985 329.919L250.823 331.303L248.642 332.659L246.442 333.985L244.224 335.283L241.988 336.553L239.736 337.795L237.467 339.008L235.182 340.193L232.88 341.348L230.562 342.474L228.228 343.568L225.878 344.628L223.511 345.653L221.126 346.64L218.724 347.585L216.305 348.485L213.867 349.338L211.412 350.138L208.94 350.882L206.45 351.566L203.944 352.186L201.421 352.737L198.884 353.215L196.333 353.617L193.769 353.938L191.196 354.174L188.613 354.322L186.024 354.378L183.431 354.34L180.836 354.205L178.242 353.97L175.653 353.634L173.071 353.196L170.499 352.655L167.941 352.01L165.4 351.263L162.879 350.414L160.382 349.464L157.911 348.414L155.47 347.268L153.062 346.026L150.69 344.692L148.357 343.268L146.065 341.757L143.817 340.164L141.615 338.491L139.461 336.743L137.358 334.925L135.307 333.04L133.309 331.094L131.366 329.092L129.479 327.038L127.648 324.938L125.874 322.797L124.157 320.62L122.497 318.414L120.894 316.183L119.346 313.933L117.853 311.67L116.415 309.398L115.028 307.124L113.693 304.852L112.406 302.587L111.166 300.335L109.971 298.1L108.817 295.886L107.704 293.697L106.626 291.538L105.582 289.413L104.569 287.325L103.583 285.276L102.622 283.27L101.681 281.309L100.758 279.396L99.8496 277.531L98.9523 275.718L98.0629 273.956L97.1784 272.246L96.2957 270.589L95.4119 268.985L94.5242 267.434L93.63 265.935L92.7267 264.487L91.8122 263.089L90.8844 261.74L89.9413 260.437L88.9812 259.179L88.0027 257.964L87.0043 256.789L85.985 255.653L84.9439 254.552L83.8803 253.484L82.794 252.445L81.6845 251.434L80.5521 250.447L79.397 249.48L78.2197 248.532L77.0209 247.598L75.8015 246.676L74.5625 245.762L73.3052 244.854L72.031 243.949L70.7413 243.043L69.4376 242.135L68.1216 241.221L66.7948 240.3L65.4589 239.369L64.1152 238.427L62.7654 237.471L61.4105 236.501L60.0518 235.515L58.69 234.511L57.3262 233.49L55.961 232.449L54.5954 231.39L53.2301 230.31L51.866 229.209L50.5039 228.086L49.1446 226.942L47.7887 225.775L46.4371 224.584L45.0904 223.371L43.7493 222.134L42.4143 220.872L41.0862 219.587L39.7655 218.277L38.4528 216.942L37.1486 215.582L35.8534 214.197L34.5677 212.787L33.2921 211.352L32.0269 209.891L30.7728 208.405L29.5303 206.894L28.2997 205.357L27.0818 203.794L25.877 202.205L24.6859 200.591L23.5091 198.951L22.3473 197.285L21.2012 195.593L20.0716 193.875L18.9593 192.132L17.8652 190.363L16.7901 188.568L15.7351 186.747L14.7012 184.901L13.6897 183.03L12.7016 181.133L11.7383 179.211L10.801 177.265L9.89131 175.294L9.01052 173.299L8.1602 171.281L7.34192 169.24L6.55731 167.177L5.80803 165.091L5.09578 162.985L4.42229 160.858L3.78931 158.713L3.1986 156.549L2.65196 154.367L2.15117 152.17L1.69805 149.958L1.29438 147.733L0.941955 145.495L0.642551 143.247L0.397904 140.99L0.209711 138.727L0.0796204 136.457L0.00921419 134.185L2.68322e-06 131.911L0.0534114 129.637L0.170771 127.367L0.353309 125.101L0.60214 122.842L0.918257 120.593L1.30253 118.355L1.75568 116.132L2.27833 113.925L2.87091 111.737L3.53376 109.57L4.26704 107.427L5.07081 105.31L5.94498 103.222L6.88931 101.164L7.90347 99.1402L8.98698 97.1521L10.1391 95.2019L11.359 93.2921L12.6452 91.4246L13.9964 89.6013L15.4108 87.8239L16.8863 86.094L18.4207 84.4129L20.0115 82.7816L21.656 81.2011L23.3513 79.672L25.0943 78.1946L26.8818 76.769L28.7103 75.3951L30.5763 74.0724L32.4762 72.8001L34.4064 71.5772L36.3629 70.4025L38.3422 69.2743L40.3403 68.1908L42.3536 67.15L44.3783 66.1495L46.4109 65.1866L48.4477 64.2587L50.4855 63.3627L52.5209 62.4954L54.551 61.6536L56.5728 60.8338L58.5837 60.0325L60.5812 59.2459L62.5633 58.4705L64.528 57.7026L66.4737 56.9384L68.3991 56.1744L70.303 55.407L72.1849 54.6327L74.0441 53.8482L75.8806 53.0505L77.6945 52.2365L79.4863 51.4036L81.2567 50.5493L83.0067 49.6716L84.7375 48.7684L86.4507 47.8384L88.148 46.8804L89.8312 45.8936L91.5026 44.8777L93.1645 43.8326L94.8191 42.7587L96.469 41.6569L98.1167 40.5281L99.7645 39.3733L101.415 38.1937L103.07 36.9906L104.732 35.7656L106.404 34.5205L108.087 33.2571L109.783 31.9776L111.495 30.6842L113.224 29.3796L114.973 28.0664L116.743 26.7476L118.535 25.4262L120.351 24.1054L122.192 22.7887L124.06 21.4795L125.955 20.1814L127.879 18.898L129.831 17.6328L131.812 16.3896L133.823 15.1717L135.863 13.9828L137.933 12.8259L140.031 11.7043L142.158 10.6207L144.312 9.57767L146.494 8.57746L148.701 7.62224L150.934 6.71415L153.191 5.85532L155.47 5.04781L157.771 4.29365L160.093 3.59478L162.432 2.95307L164.789 2.37029L167.162 1.84809L169.548 1.38802L171.946 0.991465L174.355 0.65969L176.771 0.393799L179.195 0.194733L181.622 0.0632661L184.052 -3.74384e-06L186.483 0.00534296L188.912 0.0795436L191.338 0.222652L193.758 0.434539L196.171 0.714894L198.575 1.06323L200.969 1.47887L203.35 1.961L205.716 2.50862L208.067 3.12059L210.4 3.79561L212.715 4.53228L215.01 5.32905L217.284 6.18429L219.536 7.09626L221.764 8.06315L223.968 9.08308L226.147 10.1541L228.301 11.2743L230.429 12.4417L232.529 13.6544L234.603 14.9102L236.65 16.2074L238.669 17.5439L240.66 18.918L242.623 20.3279L244.559 21.7718L246.466 23.2482L248.345 24.7555L250.196 26.2922L252.02 27.857L253.815 29.4488L255.582 31.0663L257.321 32.7089L259.031 34.3758L260.712 36.0668L262.363 37.7816L263.984 39.5202L265.573 41.2828L267.13 43.0696L268.653 44.881L270.14 46.7173L271.59 48.579L273.001 50.4665L274.371 52.3803L275.699 54.3207L276.983 56.2879L278.22 58.2821L279.409 60.3034L280.547 62.3516L281.634 64.4264L282.666 66.5273L283.643 68.6537L284.563 70.8046L285.425 72.9788L286.228 75.175L286.971 77.3915L287.655 79.6265L288.279 81.8779L288.845 84.1434L289.352 86.4206L289.803 88.7072L290.198 91.0007L290.54 93.299L290.828 95.5996L291.066 97.9003L291.256 100.199L291.399 102.493L291.499 104.781L291.557 107.061L291.576 109.33L291.559 111.587L291.51 113.831L291.431 116.059L291.326 118.27L291.197 120.464L291.049 122.639L290.885 124.793L290.708 126.928L290.522 129.04L290.331 131.132L290.137 133.201L289.945 135.249L289.759 137.275L289.581 139.28L289.414 141.264L289.263 143.228L289.13 145.173L289.018 147.1L288.93 149.011L288.868 150.906L288.834 152.788L288.832 154.658L288.862 156.518L288.926 158.369L289.025 160.215L289.161 162.056L289.335 163.896L289.546 165.736L289.795 167.579L290.081 169.426L290.404 171.281Z" fill="#FABB09"/>
</svg>
