<svg width="300" height="387" viewBox="0 0 300 387" fill="none" xmlns="http://www.w3.org/2000/svg">
<path fill-rule="evenodd" clip-rule="evenodd" d="M18.9891 177.124L19.0795 178.613L19.1171 180.102L19.1023 181.592L19.0356 183.086L18.9178 184.586L18.75 186.094L18.5338 187.612L18.2707 189.14L17.9629 190.683L17.6125 192.24L17.222 193.814L16.7941 195.405L16.3316 197.016L15.8373 198.647L15.314 200.3L14.7646 201.975L14.192 203.673L13.5991 205.396L12.9889 207.142L12.3644 208.914L11.7285 210.711L11.0842 212.534L10.4346 214.383L9.78245 216.257L9.13084 218.157L8.48262 220.083L7.84068 222.033L7.20784 224.008L6.58686 226.007L5.98042 228.03L5.39109 230.076L4.82145 232.144L4.27385 234.232L3.75059 236.342L3.25389 238.47L2.78572 240.617L2.348 242.781L1.94258 244.961L1.57103 247.157L1.23515 249.366L0.936351 251.588L0.67622 253.821L0.456127 256.064L0.277416 258.316L0.141338 260.576L0.0490526 262.841L0.00162827 265.111L1.07735e-05 267.384L0.0450852 269.658L0.137675 271.933L0.278422 274.206L0.467906 276.477L0.706614 278.744L0.994883 281.005L1.33305 283.259L1.72126 285.505L2.15962 287.742L2.64808 289.967L3.1865 292.181L3.77476 294.381L4.41252 296.568L5.09941 298.738L5.835 300.893L6.61875 303.03L7.45005 305.148L8.32829 307.248L9.25269 309.327L10.2225 311.386L11.2369 313.424L12.2949 315.44L13.3958 317.434L14.5384 319.405L15.7219 321.352L16.9454 323.276L18.2076 325.177L19.5076 327.053L20.8446 328.905L22.2172 330.733L23.6246 332.536L25.0658 334.315L26.5398 336.069L28.0455 337.799L29.582 339.504L31.1484 341.185L32.7438 342.841L34.3673 344.474L36.0181 346.082L37.6953 347.666L39.3984 349.225L41.1263 350.761L42.8785 352.273L44.6545 353.761L46.4534 355.225L48.2748 356.665L50.1182 358.08L51.983 359.472L53.8687 360.839L55.775 362.182L57.7014 363.5L59.6476 364.792L61.6131 366.06L63.5978 367.301L65.6012 368.516L67.623 369.704L69.663 370.865L71.7208 371.997L73.7962 373.101L75.889 374.176L77.9991 375.219L80.1264 376.23L82.2708 377.207L84.4322 378.148L86.6106 379.052L88.8058 379.914L91.0176 380.735L93.2459 381.51L95.4902 382.238L97.7501 382.915L100.025 383.54L102.315 384.109L104.618 384.62L106.934 385.07L109.263 385.457L111.602 385.779L113.95 386.032L116.307 386.215L118.671 386.326L121.04 386.362L123.413 386.322L125.787 386.205L128.162 386.009L130.535 385.732L132.904 385.375L135.267 384.935L137.623 384.413L139.968 383.808L142.301 383.12L144.619 382.35L146.921 381.497L149.204 380.562L151.467 379.546L153.706 378.45L155.92 377.275L158.107 376.023L160.265 374.695L162.392 373.293L164.485 371.819L166.545 370.277L168.567 368.667L170.552 366.993L172.498 365.258L174.403 363.466L176.267 361.618L178.087 359.718L179.864 357.771L181.597 355.78L183.285 353.748L184.927 351.679L186.524 349.577L188.075 347.446L189.581 345.291L191.041 343.115L192.456 340.922L193.827 338.717L195.154 336.503L196.439 334.284L197.682 332.065L198.884 329.85L200.048 327.642L201.174 325.444L202.264 323.262L203.32 321.098L204.344 318.956L205.337 316.838L206.302 314.749L207.242 312.69L208.157 310.666L209.052 308.678L209.927 306.728L210.786 304.82L211.63 302.954L212.463 301.134L213.287 299.359L214.104 297.632L214.916 295.953L215.727 294.324L216.538 292.745L217.353 291.217L218.172 289.739L218.998 288.311L219.834 286.934L220.681 285.607L221.54 284.328L222.415 283.098L223.306 281.914L224.215 280.776L225.143 279.682L226.091 278.631L227.061 277.62L228.052 276.647L229.066 275.711L230.103 274.809L231.164 273.939L232.248 273.097L233.355 272.283L234.485 271.492L235.637 270.722L236.811 269.971L238.006 269.235L239.221 268.511L240.454 267.798L241.705 267.092L242.972 266.39L244.253 265.689L245.547 264.988L246.852 264.284L248.167 263.575L249.489 262.857L250.818 262.13L252.15 261.392L253.485 260.64L254.821 259.873L256.156 259.09L257.488 258.29L258.817 257.471L260.14 256.633L261.458 255.775L262.768 254.897L264.07 253.998L265.363 253.078L266.646 252.137L267.919 251.175L269.179 250.19L270.426 249.184L271.66 248.155L272.879 247.105L274.082 246.032L275.269 244.938L276.44 243.821L277.592 242.683L278.725 241.523L279.839 240.341L280.932 239.137L282.004 237.913L283.054 236.667L284.081 235.401L285.084 234.114L286.063 232.807L287.016 231.481L287.943 230.135L288.843 228.769L289.715 227.386L290.558 225.983L291.371 224.564L292.154 223.126L292.905 221.672L293.624 220.202L294.309 218.716L294.96 217.215L295.576 215.699L296.155 214.169L296.698 212.626L297.202 211.071L297.668 209.504L298.094 207.926L298.479 206.337L298.822 204.74L299.124 203.134L299.382 201.52L299.596 199.9L299.765 198.274L299.89 196.643L299.968 195.009L300 193.373L299.985 191.735L299.923 190.097L299.813 188.46L299.656 186.825L299.45 185.193L299.197 183.566L298.895 181.944L298.546 180.329L298.15 178.722L297.706 177.124L297.216 175.536L296.68 173.96L296.098 172.397L295.473 170.847L294.804 169.312L294.094 167.792L293.342 166.289L292.551 164.804L291.723 163.337L290.858 161.89L289.959 160.462L289.028 159.054L288.066 157.668L287.076 156.302L286.058 154.959L285.015 153.637L283.948 152.338L282.86 151.062L281.75 149.808L280.622 148.578L279.475 147.37L278.312 146.186L277.135 145.025L275.944 143.887L274.741 142.771L273.527 141.679L272.304 140.609L271.073 139.562L269.836 138.537L268.593 137.533L267.347 136.551L266.098 135.589L264.848 134.648L263.599 133.726L262.351 132.824L261.105 131.94L259.863 131.074L258.626 130.225L257.395 129.392L256.17 128.575L254.954 127.773L253.746 126.984L252.549 126.208L251.363 125.444L250.19 124.691L249.03 123.947L247.884 123.212L246.755 122.483L245.642 121.76L244.547 121.041L243.47 120.324L242.414 119.609L241.377 118.894L240.362 118.176L239.37 117.455L238.4 116.728L237.453 115.994L236.53 115.252L235.632 114.499L234.759 113.734L233.91 112.955L233.087 112.161L232.289 111.349L231.516 110.518L230.768 109.667L230.045 108.794L229.347 107.897L228.672 106.975L228.021 106.026L227.393 105.049L226.786 104.043L226.201 103.007L225.635 101.939L225.089 100.839L224.56 99.7047L224.047 98.5366L223.55 97.3334L223.066 96.0948L222.595 94.8201L222.133 93.5091L221.681 92.1615L221.236 90.7772L220.795 89.3562L220.359 87.8988L219.924 86.4051L219.489 84.8756L219.051 83.3108L218.61 81.7114L218.162 80.0781L217.707 78.4118L217.241 76.7135L216.764 74.9844L216.273 73.2256L215.767 71.4385L215.243 69.6245L214.7 67.7851L214.137 65.9219L213.55 64.0366L212.94 62.1309L212.304 60.2066L211.641 58.2656L210.949 56.3098L210.227 54.3412L209.474 52.3619L208.689 50.3739L207.87 48.3792L207.016 46.3801L206.127 44.3789L205.202 42.3782L204.239 40.3809L203.237 38.39L202.197 36.4086L201.116 34.4402L199.994 32.4883L198.831 30.5565L197.627 28.6484L196.38 26.7681L195.091 24.9192L193.76 23.1058L192.386 21.3319L190.971 19.6014L189.514 17.9183L188.017 16.2867L186.479 14.7106L184.902 13.1939L183.287 11.7405L181.635 10.3545L179.947 9.03965L178.225 7.79981L176.47 6.63877L174.686 5.56031L172.872 4.56813L171.032 3.66583L169.168 2.85667L167.282 2.14359L165.377 1.52915L163.456 1.01557L161.522 0.604639L159.576 0.297791L157.623 0.0960397L155.665 -3.83686e-06L153.706 0.00986245L151.748 0.125431L149.794 0.346084L147.848 0.670803L145.912 1.09817L143.989 1.62636L142.082 2.25321L140.194 2.97613L138.327 3.79222L136.483 4.69822L134.664 5.69055L132.873 6.76533L131.112 7.91839L129.382 9.1453L127.684 10.4414L126.02 11.8018L124.39 13.2214L122.795 14.695L121.237 16.2171L119.714 17.7824L118.227 19.3852L116.776 21.0199L115.36 22.6808L113.979 24.3623L112.631 26.0587L111.315 27.7644L110.029 29.474L108.773 31.182L107.544 32.8831L106.34 34.5723L105.159 36.2446L103.998 37.8952L102.855 39.5198L101.727 41.1139L100.611 42.6736L99.5045 44.1951L98.4043 45.6751L97.3075 47.1105L96.2107 48.4983L95.1108 49.8362L94.0048 51.1219L92.8895 52.3539L91.7618 53.5305L90.6186 54.6507L89.457 55.7138L88.2742 56.7194L87.0673 57.6675L85.8339 58.5585L84.5714 59.3929L83.2776 60.1719L81.9502 60.8967L80.5876 61.569L79.1879 62.1907L77.7498 62.764L76.2719 63.2915L74.7534 63.7758L73.1934 64.22L71.5915 64.6272L69.9476 65.0008L68.2616 65.3444L66.534 65.6618L64.7657 65.9571L62.9579 66.2347L61.1123 66.4991L59.231 66.7553L57.3164 67.008L55.3716 67.2624L53.3996 67.5234L51.4041 67.7962L49.3889 68.0857L47.3583 68.3968L45.3165 68.7344L43.2684 69.1029L41.2186 69.5068L39.1722 69.9502L37.1342 70.4371L35.1098 70.9711L33.1043 71.5555L31.1228 72.1931L29.1705 72.8867L27.2525 73.6384L25.3738 74.4501L23.5391 75.3231L21.753 76.2587L20.02 77.2573L18.3441 78.3193L16.7291 79.4445L15.1788 80.6326L13.6965 81.8828L12.2854 83.1942L10.9485 84.5656L9.68852 85.9954L8.50771 87.482L7.40813 89.0232L6.39159 90.617L5.45952 92.2609L4.61299 93.9523L3.85271 95.6885L3.17912 97.4665L2.59233 99.2833L2.09196 101.136L1.67744 103.021L1.34776 104.935L1.10158 106.874L0.937301 108.837L0.85289 110.818L0.846145 112.814L0.914352 114.823L1.0547 116.841L1.26405 118.865L1.53896 120.891L1.87578 122.916L2.27061 124.939L2.71947 126.955L3.21794 128.962L3.76176 130.959L4.3463 132.941L4.96687 134.908L5.61882 136.858L6.29719 138.788L6.99721 140.698L7.71394 142.586L8.44252 144.451L9.17805 146.292L9.91582 148.108L10.6511 149.9L11.3792 151.667L12.0957 153.408L12.7962 155.125L13.4765 156.818L14.1326 158.487L14.7608 160.133L15.3575 161.757L15.9192 163.36L16.443 164.945L16.926 166.511L17.3658 168.061L17.7599 169.597L18.1065 171.12L18.4038 172.632L18.6507 174.135L18.846 175.632L18.9891 177.124Z" fill="url(#paint0_linear_210_68)"/>
<defs>
<linearGradient id="paint0_linear_210_68" x1="150" y1="-3.98746e-06" x2="150" y2="386.362" gradientUnits="userSpaceOnUse">
<stop offset="0.9999" stop-color="#4285F3"/>
<stop offset="1" stop-color="#3B12A8"/>
</linearGradient>
</defs>
</svg>
